<svg width="92" height="85" viewBox="0 0 92 85" fill="none" xmlns="http://www.w3.org/2000/svg">
<path d="M18.6696 35.0888C19.4995 21.062 28.866 12.4888 33.4455 9.95564C34.9811 8.66343 38.6603 6.0665 41.0929 6.01652C44.1337 5.95403 42.4427 3.6867 59.544 7.69277C76.6452 11.6988 80.0225 44.0229 80.157 46.5688C80.2916 49.1148 79.3549 55.5469 78.5624 60.9895C78.018 64.7277 74.5073 67.5572 72.8895 68.7122C72.7375 68.916 72.5507 69.0644 72.3177 69.1751C71.8077 69.4173 72.1519 69.2388 72.8895 68.7122C73.7998 67.4918 73.4625 64.2865 74.3351 55.3212C73.5425 60.7638 69.349 68.7428 66.8655 71.9181C66.2507 72.6707 64.2707 74.4708 61.2693 75.6506C65.1026 70.1456 68.3256 54.9514 66.6156 59.7551C64.9055 64.5589 50.8164 71.0969 50.2496 71.5196C49.6828 71.9423 45.4459 69.8096 33.3741 62.4937C34.6912 71.7428 40.8845 76.9381 42.3728 77.8574C41.7366 77.6347 40.8872 77.3662 39.8401 77.0776C28.1815 73.8641 24.6937 56.1769 25.5921 63.8868C26.4905 71.5968 37.9955 79.3354 28.2535 73.3693C18.5115 67.4032 17.6322 52.6223 18.6696 35.0888Z" fill="#313030"/>
<path d="M68.4677 39.2598C71.1724 58.8541 57.221 66.7595 50.0026 68.9085C34.2849 65.8112 29.734 50.7988 29.4233 43.6797L33.3286 37.6799C34.1203 37.7951 36.7488 28.0724 37.964 23.1966C37.9785 26.5672 39.2631 34.4008 44.2859 38.7702C49.3087 43.1395 53.3473 43.6266 54.7388 43.3239C54.6011 41.9565 54.34 39.1226 54.3977 38.7268C54.3484 38.4518 54.1573 38.0142 53.856 37.3245C53.0499 35.4792 51.4555 31.8294 49.6827 24.6621C49.5876 24.3809 49.5217 24.1141 49.4881 23.8642C49.5532 24.1348 49.6181 24.4009 49.6827 24.6621C49.7591 24.8884 49.8544 25.124 49.9668 25.3678C51.7327 29.1964 57.7339 35.0441 61.5407 38.2511L61.901 35.7772C62.6055 36.7219 64.9052 38.7411 68.4677 39.2598Z" fill="white"/>
<path d="M88.1803 28.9394L81.3975 26.9411C81.0593 26.4877 81.1125 27.7417 81.1813 28.4255L83.0164 29.7032C83.4871 29.9402 85.1915 30.7273 88.2428 31.9801C89.6532 33.3981 88.2605 34.1722 87.3878 34.382L82.0893 32.5999L84.1934 38.9695C84.4032 39.8422 85.0331 42.2245 85.8748 44.7724C85.5289 47.1473 84.2671 46.5594 83.6795 45.9685L79.1927 31.6728C78.7731 29.9274 77.8783 26.1255 77.6554 24.8804C77.3768 23.324 86.2108 25.1156 88.5406 26.4655C90.4044 27.5453 89.077 28.5647 88.1803 28.9394Z" fill="#313030"/>
<path d="M88.1803 28.9394L81.3975 26.9411C81.0593 26.4877 81.1125 27.7417 81.1813 28.4255L83.0164 29.7032C83.4871 29.9402 85.1915 30.7273 88.2428 31.9801C89.6532 33.3981 88.2605 34.1722 87.3878 34.382L82.0893 32.5999L84.1934 38.9695C84.4032 39.8422 85.0331 42.2245 85.8748 44.7724C85.5289 47.1473 84.2671 46.5594 83.6795 45.9685L79.1927 31.6728C78.7731 29.9274 77.8783 26.1255 77.6554 24.8804C77.3768 23.324 86.2108 25.1156 88.5406 26.4655C90.4044 27.5453 89.077 28.5647 88.1803 28.9394Z" fill="#313030"/>
<path d="M27.5999 28.4409L29.1966 21.4418C30.6912 20.6952 32.0812 21.4601 32.5894 21.9359L31.5582 29.0173C29.405 31.1142 28.0222 29.5067 27.5999 28.4409Z" fill="white"/>
<path d="M27.5999 28.4409L29.1966 21.4418C30.6912 20.6952 32.0812 21.4601 32.5894 21.9359L31.5582 29.0173C29.405 31.1142 28.0222 29.5067 27.5999 28.4409Z" fill="white"/>
<path d="M25.4597 25.7901C24.3356 23.1 22.6351 24.3682 21.9962 25.2857L21.5639 28.2544C22.5208 30.0107 24.2716 29.3224 25.0274 28.7588L25.0994 28.264L25.1715 27.7692L25.4597 25.7901Z" fill="white"/>
<path d="M25.4597 25.7901C24.3356 23.1 22.6351 24.3682 21.9962 25.2857L21.5639 28.2544C22.5208 30.0107 24.2716 29.3224 25.0274 28.7588L25.0994 28.264L25.1715 27.7692L25.4597 25.7901Z" fill="white"/>
<path d="M63.6156 29.7829L60.1218 23.126L56.628 16.469C57.2833 14.8537 58.7674 14.9985 59.4276 15.2728C61.2745 18.2149 65.3758 24.9069 67.0056 28.1381C67.051 30.7109 64.7645 30.3067 63.6156 29.7829Z" fill="white"/>
<path d="M63.6156 29.7829L60.1218 23.126L56.628 16.469C57.2833 14.8537 58.7674 14.9985 59.4276 15.2728C61.2745 18.2149 65.3758 24.9069 67.0056 28.1381C67.051 30.7109 64.7645 30.3067 63.6156 29.7829Z" fill="white"/>
<path d="M57.8859 35.5902C57.7796 35.2943 57.5166 35.2318 57.3393 35.1757C56.8932 35.0344 56.4355 34.9403 55.9609 35.0147C55.2442 35.1271 54.5657 35.1687 53.8403 35.6141" stroke="#313030" stroke-width="0.5" stroke-linecap="round"/>
<path d="M39.1783 36.5516C38.9099 36.4518 38.6049 36.4309 38.3228 36.3945C37.7029 36.3145 37.0737 36.3439 36.4504 36.3287C35.9881 36.3174 35.5659 36.3859 35.1215 36.5118C34.8625 36.5851 34.6711 36.6922 34.4602 36.8495" stroke="#313030" stroke-width="0.5" stroke-linecap="round"/>
<path d="M57.2575 50.2592C56.9471 50.5205 56.6568 51.1886 56.5108 51.5444C56.4326 51.7349 56.2343 51.8394 56.1215 52.0111C55.9331 52.2979 55.7958 52.5945 55.5536 52.8507C55.1808 53.2452 54.8619 53.6919 54.5118 54.0981C54.362 54.2719 54.0668 54.8766 54.0999 54.6495" stroke="#313030" stroke-linecap="round"/>
<path d="M60.1877 49.6755C60.0464 50.6456 59.2602 51.6563 58.622 52.3856C58.3023 52.7508 57.9728 53.1539 57.7094 53.5636C57.6255 53.6942 57.1923 54.2328 57.1994 54.1837" stroke="#313030" stroke-linecap="round"/>
<path d="M62.9737 50.0813C63.2472 50.1936 60.6372 53.0996 60.341 53.4288" stroke="#313030" stroke-linecap="round"/>
<path d="M41.6325 52.0262C41.5176 52.4872 40.973 53.1964 40.6227 53.5166C40.3049 53.807 39.8311 54.2099 39.5481 54.5415C39.0901 55.0781 38.64 55.6363 38.189 56.1883" stroke="#313030" stroke-linecap="round"/>
<path d="M37.5529 52.4426C37.4066 53.0736 36.8593 53.634 36.4678 54.1293C36.168 54.5087 35.9435 54.9463 35.6423 55.3149C35.3862 55.6283 35.0238 56.3645 34.6311 56.4942" stroke="#313030" stroke-linecap="round"/>
<path d="M34.3488 52.9867C33.9085 52.9778 32.9362 54.6073 32.6662 54.9335C32.4033 55.2512 32.0405 56.0096 31.6513 56.1382" stroke="#313030" stroke-linecap="round"/>
<path d="M16.7588 30.4698C16.9893 28.8865 15.9613 29.0063 15.4185 29.2641L10.5332 31.5844L5.64786 33.9046C5.02147 35.4303 6.51415 36.0519 7.33879 36.1719L9.53406 34.9758L12.7909 33.429C14.0937 32.8102 14.2753 33.6451 14.2032 34.1399L11.3691 36.2536L7.40127 39.2127C6.71725 41.1342 7.9137 41.4768 8.59742 41.408L13.6989 37.6034L12.4741 46.0147L11.6095 51.952C12.2282 53.2548 13.5165 52.735 14.0834 52.3123C14.2963 52.0064 14.8519 50.5042 15.3707 46.9417C16.0191 42.4887 16.4706 32.449 16.7588 30.4698Z" fill="#313030"/>
<path d="M16.7588 30.4698C16.9893 28.8865 15.9613 29.0063 15.4185 29.2641L10.5332 31.5844L5.64786 33.9046C5.02147 35.4303 6.51415 36.0519 7.33879 36.1719L9.53406 34.9758L12.7909 33.429C14.0937 32.8102 14.2753 33.6451 14.2032 34.1399L11.3691 36.2536L7.40127 39.2127C6.71725 41.1342 7.9137 41.4768 8.59742 41.408L13.6989 37.6034L12.4741 46.0147L11.6095 51.952C12.2282 53.2548 13.5165 52.735 14.0834 52.3123C14.2963 52.0064 14.8519 50.5042 15.3707 46.9417C16.0191 42.4887 16.4706 32.449 16.7588 30.4698Z" fill="#313030"/>
<path d="M25.4286 43.3537L31.0057 46.6922L31.5005 46.7643L31.7887 44.7851L33.0665 42.9501L34.1281 42.5994L35.1177 42.7435C34.3347 44.6506 33.4172 44.0117 32.8503 44.4345C32.3969 44.7727 32.703 46.6025 32.9128 47.4752C33.1706 48.018 33.8842 49.1325 34.6758 49.2477L38.1393 49.7521C38.6341 49.8241 39.8846 49.3325 40.2625 49.0507C40.4755 48.7449 40.9446 47.8363 41.1175 46.6489C41.2904 45.4614 40.5843 43.3711 40.2096 42.4744L43.1062 43.4015L42.7555 42.3399C41.9789 41.89 40.4401 40.8911 40.4978 40.4953C40.5554 40.0995 41.2776 39.7668 41.6314 39.6499L40.786 38.5162C39.8204 38.2072 38.0728 37.7169 38.8068 38.228C39.5409 38.7391 40.0062 39.2448 40.1471 39.4337C40.5938 39.8356 40.8091 40.4396 38.0959 39.6403C35.3828 38.841 32.0112 40.9438 30.6646 42.0951C29.3692 41.738 27.0609 41.1661 28.1907 41.7348C29.3206 42.3036 29.8848 42.8237 30.0257 43.0126L29.3869 43.9301L25.4286 43.3537Z" fill="#313030"/>
<path d="M60.6493 40.9034C62.5564 41.6864 63.7285 44.0466 64.0311 45.438L64.3193 43.4589L67.2976 40.3557L64.1848 40.913L61.4323 38.9963C59.996 38.4503 56.6699 37.6965 54.856 39.0492C53.0421 40.402 53.1043 41.8258 53.3621 42.3686C54.1419 41.64 55.7572 40.4942 55.9801 41.7393C56.2587 43.2957 55.2692 43.1516 54.2796 43.0075C53.4246 45.4093 54.8369 46.1203 54.7648 46.6151C54.6928 47.1098 57.0946 47.9649 58.579 48.181C59.5685 48.3251 60.2763 48.0913 61.197 47.5517C61.6229 46.94 62.4892 45.6177 62.5468 45.2219C62.6044 44.8261 62.4331 43.6895 62.3402 43.1707L60.6493 40.9034Z" fill="#313030"/>
<path d="M59.1104 44.5288L56.4204 45.6529C56.3483 46.1477 58.6061 47.9923 59.8839 46.1573C60.9061 44.6892 59.7942 44.4599 59.1104 44.5288Z" fill="white"/>
<path d="M68.1327 17.5492C65.8154 16.8075 65.3257 18.3194 65.3706 19.1681C65.8862 20.2537 67.4103 23.2041 69.3817 26.3207C71.922 28.3075 72.5634 26.4472 72.5666 25.2687L70.1743 20.8781L68.1327 17.5492Z" fill="white"/>
<path d="M68.1327 17.5492C65.8154 16.8075 65.3257 18.3194 65.3706 19.1681C65.8862 20.2537 67.4103 23.2041 69.3817 26.3207C71.922 28.3075 72.5634 26.4472 72.5666 25.2687L70.1743 20.8781L68.1327 17.5492Z" fill="white"/>
<path d="M37.5464 46.8836L36.0621 46.6675C35.6086 47.0057 35.729 47.798 35.8459 48.1518C36.7875 48.6258 38.8271 49.1923 39.4535 47.6666C40.0799 46.141 38.869 45.8973 38.1853 45.9661L37.5464 46.8836Z" fill="white"/>
</svg>
