<svg width="143" height="43" viewBox="0 0 143 43" fill="none" xmlns="http://www.w3.org/2000/svg">
<path d="M0 16C0 7.16344 7.16344 0 16 0H126.909C135.746 0 142.909 7.16344 142.909 16V27C142.909 35.8366 135.746 43 126.909 43H16C7.16343 43 0 35.8366 0 27V16Z" fill="white"/>
<path d="M12.7412 19.0301C13.0194 14.2279 16.4189 11.3078 18.0839 10.448C18.6414 10.008 19.9781 9.12491 20.8648 9.1119C21.9732 9.09564 21.3528 8.31631 27.5938 9.71712C33.8349 11.1179 35.1223 22.1933 35.1758 23.0655C35.2293 23.9376 34.899 26.1388 34.6196 28.0013C34.4277 29.2806 33.1528 30.2436 32.5651 30.6364C32.51 30.706 32.4422 30.7565 32.3574 30.794C32.1719 30.8761 32.2971 30.8155 32.5651 30.6364C32.8947 30.22 32.7662 29.1218 33.0687 26.053C32.7893 27.9155 31.2744 30.6409 30.3747 31.7241C30.1518 31.9808 29.4332 32.594 28.3411 32.9929C29.7289 31.1141 30.8774 25.9162 30.2624 27.5584C29.6473 29.2006 24.5227 31.4158 24.3168 31.5596C24.1109 31.7034 22.5627 30.9659 18.1493 28.4401C18.6455 31.6097 20.9123 33.3994 21.4564 33.7167C21.2241 33.6394 20.914 33.546 20.5318 33.4454C16.2762 32.3252 14.974 26.2621 15.3149 28.904C15.6558 31.5459 19.8633 34.2155 16.3016 32.1559C12.7399 30.0963 12.3936 25.0329 12.7412 19.0301Z" fill="#313030"/>
<path d="M30.9017 20.5429C31.9218 27.2577 26.8497 29.9415 24.2221 30.6652C18.487 29.5779 16.8018 24.4291 16.6762 21.9906L18.0894 19.9424C18.3782 19.9833 19.3194 16.658 19.7539 14.9903C19.7651 16.1447 20.247 18.8295 22.0856 20.3343C23.9242 21.8392 25.3973 22.0128 25.904 21.9115C25.8515 21.443 25.7514 20.472 25.7717 20.3366C25.7533 20.2423 25.6828 20.0921 25.5718 19.8554C25.2747 19.2221 24.6872 17.9695 24.0284 15.512C23.9933 15.4155 23.9688 15.3241 23.9561 15.2384C23.9803 15.3312 24.0044 15.4225 24.0284 15.512C24.0567 15.5896 24.0918 15.6705 24.1332 15.7542C24.7836 17.0683 26.9815 19.081 28.3748 20.1857L28.5018 19.3391C28.7603 19.6639 29.6021 20.3592 30.9017 20.5429Z" fill="white"/>
<path d="M38.0699 17.0419L35.5938 16.3462C35.4698 16.1903 35.4913 16.6199 35.5176 16.8541L36.1888 17.2948C36.3608 17.3768 36.9835 17.6492 38.098 18.0834C38.6146 18.5714 38.1082 18.8341 37.7905 18.9045L35.8559 18.2852L36.634 20.4701C36.712 20.7694 36.9458 21.5863 37.257 22.4602C37.1351 23.273 36.6741 23.0695 36.4588 22.8662L34.7983 17.9628C34.6423 17.3644 34.3095 16.0609 34.2261 15.6341C34.1218 15.1006 37.3453 15.7291 38.1969 16.1953C38.8783 16.5683 38.3961 16.9151 38.0699 17.0419Z" fill="#313030"/>
<path d="M38.0699 17.0419L35.5938 16.3462C35.4698 16.1903 35.4913 16.6199 35.5176 16.8541L36.1888 17.2948C36.3608 17.3768 36.9835 17.6492 38.098 18.0834C38.6146 18.5714 38.1082 18.8341 37.7905 18.9045L35.8559 18.2852L36.634 20.4701C36.712 20.7694 36.9458 21.5863 37.257 22.4602C37.1351 23.273 36.6741 23.0695 36.4588 22.8662L34.7983 17.9628C34.6423 17.3644 34.3095 16.0609 34.2261 15.6341C34.1218 15.1006 37.3453 15.7291 38.1969 16.1953C38.8783 16.5683 38.3961 16.9151 38.0699 17.0419Z" fill="#313030"/>
<path d="M15.985 16.7688L16.5549 14.3746C17.0984 14.1214 17.6065 14.3857 17.7925 14.5495L17.429 16.9728C16.6477 17.6873 16.1408 17.1345 15.985 16.7688Z" fill="white"/>
<path d="M15.985 16.7688L16.5549 14.3746C17.0984 14.1214 17.6065 14.3857 17.7925 14.5495L17.429 16.9728C16.6477 17.6873 16.1408 17.1345 15.985 16.7688Z" fill="white"/>
<path d="M15.2002 15.8577C14.7857 14.9346 14.168 15.366 13.9367 15.6791L13.7843 16.6951C14.1362 17.2981 14.7732 17.0654 15.0477 16.8736L15.0731 16.7043L15.0985 16.535L15.2002 15.8577Z" fill="white"/>
<path d="M15.2002 15.8577C14.7857 14.9346 14.168 15.366 13.9367 15.6791L13.7843 16.6951C14.1362 17.2981 14.7732 17.0654 15.0477 16.8736L15.0731 16.7043L15.0985 16.535L15.2002 15.8577Z" fill="white"/>
<path d="M29.1166 17.2893L27.8314 15.0036L26.5461 12.718C26.7822 12.1659 27.3235 12.218 27.5646 12.3131C28.243 13.3237 29.7498 15.6224 30.3495 16.7317C30.3705 17.6129 29.5363 17.4706 29.1166 17.2893Z" fill="white"/>
<path d="M29.1166 17.2893L27.8314 15.0036L26.5461 12.718C26.7822 12.1659 27.3235 12.218 27.5646 12.3131C28.243 13.3237 29.7498 15.6224 30.3495 16.7317C30.3705 17.6129 29.5363 17.4706 29.1166 17.2893Z" fill="white"/>
<path d="M27.0378 19.268C26.9986 19.1665 26.9026 19.1446 26.8379 19.1251C26.675 19.076 26.508 19.0429 26.3351 19.0676C26.074 19.1049 25.8268 19.118 25.5631 19.2693" stroke="#313030" stroke-width="0.5" stroke-linecap="round"/>
<path d="M20.2199 19.5661C20.1218 19.5315 20.0106 19.5238 19.9077 19.5109C19.6816 19.4824 19.4523 19.4914 19.225 19.4852C19.0565 19.4805 18.9027 19.5033 18.7409 19.5456C18.6466 19.5703 18.577 19.6067 18.5004 19.6602" stroke="#313030" stroke-width="0.5" stroke-linecap="round"/>
<path d="M26.8344 24.2912C26.7217 24.3801 26.617 24.6084 26.5644 24.7301C26.5362 24.7952 26.4642 24.8306 26.4233 24.8892C26.3551 24.9871 26.3056 25.0885 26.2178 25.1758C26.0826 25.3103 25.9671 25.4627 25.8402 25.6012C25.7859 25.6605 25.6793 25.8671 25.691 25.7894" stroke="#313030" stroke-linecap="round"/>
<path d="M27.9016 24.0962C27.8517 24.4282 27.5669 24.773 27.3355 25.0217C27.2196 25.1462 27.1002 25.2837 27.0049 25.4236C26.9746 25.4681 26.8175 25.6519 26.8201 25.6351" stroke="#313030" stroke-linecap="round"/>
<path d="M28.9178 24.2392C29.0177 24.2781 28.0713 25.2689 27.9639 25.3811" stroke="#313030" stroke-linecap="round"/>
<path d="M21.1415 24.8698C21.1004 25.0275 20.9031 25.2694 20.776 25.3785C20.6606 25.4774 20.4886 25.6146 20.386 25.7277C20.22 25.9107 20.0569 26.1011 19.8935 26.2894" stroke="#313030" stroke-linecap="round"/>
<path d="M19.655 25.0054C19.6028 25.2213 19.4042 25.4123 19.2624 25.5812C19.1537 25.7106 19.0726 25.8601 18.9635 25.9858C18.8707 26.0927 18.7398 26.3442 18.5969 26.388" stroke="#313030" stroke-linecap="round"/>
<path d="M18.4879 25.1863C18.3274 25.1825 17.9757 25.7389 17.8779 25.8501C17.7826 25.9585 17.6517 26.2176 17.51 26.261" stroke="#313030" stroke-linecap="round"/>
<path d="M12.0365 17.4457C12.1178 16.9039 11.7432 16.9431 11.5458 17.0305L9.76896 17.8168L7.99211 18.6032C7.76642 19.1246 8.31164 19.34 8.61247 19.3825L9.41065 18.9766L10.5952 18.4524C11.069 18.2427 11.1367 18.5289 11.1113 18.6982L10.0818 19.4173L8.64054 20.4239C8.39453 21.0808 8.83128 21.2002 9.0804 21.1778L10.9335 19.8835L10.5016 22.7619L10.1968 24.7938C10.4246 25.241 10.8933 25.0651 11.0992 24.9213C11.1763 24.817 11.3763 24.3034 11.5592 23.0843C11.7878 21.5604 11.9349 18.123 12.0365 17.4457Z" fill="#313030"/>
<path d="M12.0365 17.4457C12.1178 16.9039 11.7432 16.9431 11.5458 17.0305L9.76896 17.8168L7.99211 18.6032C7.76642 19.1246 8.31164 19.34 8.61247 19.3825L9.41065 18.9766L10.5952 18.4524C11.069 18.2427 11.1367 18.5289 11.1113 18.6982L10.0818 19.4173L8.64054 20.4239C8.39453 21.0808 8.83128 21.2002 9.0804 21.1778L10.9335 19.8835L10.5016 22.7619L10.1968 24.7938C10.4246 25.241 10.8933 25.0651 11.0992 24.9213C11.1763 24.817 11.3763 24.3034 11.5592 23.0843C11.7878 21.5604 11.9349 18.123 12.0365 17.4457Z" fill="#313030"/>
<path d="M15.2195 21.8721L17.2583 23.0248L17.4388 23.0503L17.5405 22.373L18.0031 21.7468L18.3894 21.6285L18.7504 21.6795C18.4683 22.3313 18.1327 22.1109 17.9268 22.2547C17.7621 22.3698 17.8769 22.997 17.9549 23.2962C18.0498 23.4825 18.3119 23.8654 18.6007 23.9062L19.8641 24.0847C20.0446 24.1102 20.4996 23.944 20.6369 23.8481C20.714 23.7438 20.8834 23.4334 20.9444 23.027C21.0054 22.6207 20.7443 21.9036 20.6062 21.5959L21.6637 21.9183L21.534 21.5542C21.2501 21.3988 20.6875 21.0541 20.7078 20.9186C20.7281 20.7832 20.9908 20.6705 21.1196 20.631L20.8094 20.2414C20.4569 20.1339 19.819 19.9631 20.0874 20.1393C20.3559 20.3156 20.5264 20.4896 20.5781 20.5545C20.7416 20.6929 20.8212 20.9001 19.8307 20.6218C18.8403 20.3435 17.6149 21.0579 17.126 21.4499C16.6531 21.3254 15.8107 21.1257 16.2235 21.3223C16.6364 21.519 16.843 21.6981 16.8947 21.763L16.6634 22.0762L15.2195 21.8721Z" fill="#313030"/>
<path d="M28.0545 21.0924C28.7511 21.3638 29.1825 22.1741 29.2952 22.6511L29.3968 21.9738L30.4771 20.9161L29.3434 21.1017L28.3366 20.4407C27.8121 20.2513 26.5983 19.9875 25.9394 20.4477C25.2805 20.9079 25.3057 21.3956 25.4006 21.5819C25.6836 21.3337 26.2704 20.944 26.3539 21.3708C26.4581 21.9043 26.0972 21.8533 25.7362 21.8023C25.4287 22.6233 25.9447 22.8692 25.9193 23.0385C25.8939 23.2078 26.771 23.5047 27.3125 23.5812C27.6735 23.6323 27.931 23.5534 28.2657 23.3702C28.4199 23.1614 28.7334 22.71 28.7537 22.5746C28.7741 22.4391 28.7096 22.0496 28.6749 21.8718L28.0545 21.0924Z" fill="#313030"/>
<path d="M27.4999 22.3313L26.5212 22.7117C26.4958 22.881 27.3221 23.5165 27.7847 22.8902C28.1547 22.3892 27.749 22.3088 27.4999 22.3313Z" fill="white"/>
<path d="M30.7418 13.1074C29.8957 12.8495 29.7199 13.3664 29.7377 13.6571C29.9275 14.0298 30.4883 15.0428 31.2124 16.1134C32.1418 16.7981 32.3724 16.1621 32.3715 15.7585L31.4918 14.2509L30.7418 13.1074Z" fill="white"/>
<path d="M30.7418 13.1074C29.8957 12.8495 29.7199 13.3664 29.7377 13.6571C29.9275 14.0298 30.4883 15.0428 31.2124 16.1134C32.1418 16.7981 32.3724 16.1621 32.3715 15.7585L31.4918 14.2509L30.7418 13.1074Z" fill="white"/>
<path d="M19.6429 23.1018L19.1014 23.0253C18.9367 23.1403 18.982 23.4119 19.0252 23.5333C19.3693 23.6972 20.1138 23.8946 20.3395 23.3732C20.5652 22.8518 20.1234 22.7663 19.8742 22.7887L19.6429 23.1018Z" fill="white"/>
<path d="M46.3891 25.24C46.0531 25.24 45.7491 25.136 45.4771 24.928C45.2051 24.704 45.0371 24.416 44.9731 24.064L43.5091 16.264C43.4771 15.944 43.5651 15.68 43.7731 15.472C43.9971 15.264 44.2691 15.16 44.5891 15.16C44.8611 15.16 45.0931 15.24 45.2851 15.4C45.4771 15.56 45.5971 15.776 45.6451 16.048L46.5091 21.304C46.5411 21.496 46.6131 21.592 46.7251 21.592C46.8211 21.592 46.8931 21.504 46.9411 21.328L48.0931 17.08C48.1731 16.776 48.3251 16.552 48.5491 16.408C48.7731 16.248 49.0131 16.168 49.2691 16.168C49.5251 16.168 49.7651 16.248 49.9891 16.408C50.2131 16.552 50.3651 16.776 50.4451 17.08L51.5971 21.328C51.6451 21.504 51.7171 21.592 51.8131 21.592C51.9411 21.592 52.0131 21.496 52.0291 21.304L52.8931 16.048C52.9411 15.776 53.0611 15.56 53.2531 15.4C53.4611 15.24 53.6931 15.16 53.9491 15.16C54.2691 15.16 54.5331 15.264 54.7411 15.472C54.9651 15.68 55.0611 15.944 55.0291 16.264L53.5411 24.064C53.4771 24.416 53.3091 24.704 53.0371 24.928C52.7651 25.136 52.4611 25.24 52.1251 25.24C51.8211 25.24 51.5331 25.144 51.2611 24.952C51.0051 24.744 50.8131 24.472 50.6851 24.136L49.4851 19.912C49.4371 19.736 49.3651 19.648 49.2691 19.648C49.1571 19.648 49.0771 19.736 49.0291 19.912L47.8291 24.136C47.7331 24.472 47.5491 24.744 47.2771 24.952C47.0051 25.144 46.7091 25.24 46.3891 25.24ZM59.3641 25.24C58.2921 25.24 57.4201 24.904 56.7481 24.232C56.0921 23.544 55.7641 22.632 55.7641 21.496C55.7641 20.36 56.0841 19.464 56.7241 18.808C57.3801 18.136 58.2361 17.8 59.2921 17.8C60.0441 17.8 60.7001 18.064 61.2601 18.592C61.3241 18.4 61.4441 18.24 61.6201 18.112C61.7961 17.984 62.0041 17.92 62.2441 17.92C62.5641 17.92 62.8201 18.016 63.0121 18.208C63.2201 18.384 63.3241 18.6 63.3241 18.856V24.304C63.3241 24.576 63.2201 24.8 63.0121 24.976C62.8201 25.152 62.5641 25.24 62.2441 25.24C61.7161 25.24 61.3881 25.008 61.2601 24.544C60.7481 25.008 60.1161 25.24 59.3641 25.24ZM59.5321 23.296C60.0441 23.296 60.4521 23.128 60.7561 22.792C61.0601 22.44 61.2121 22.008 61.2121 21.496C61.2121 20.968 61.0601 20.544 60.7561 20.224C60.4521 19.904 60.0441 19.744 59.5321 19.744C59.0361 19.744 58.6281 19.904 58.3081 20.224C58.0041 20.544 57.8521 20.968 57.8521 21.496C57.8521 22.008 58.0041 22.44 58.3081 22.792C58.6281 23.128 59.0361 23.296 59.5321 23.296ZM66.2309 25.24C65.9269 25.24 65.6709 25.152 65.4629 24.976C65.2549 24.8 65.1509 24.576 65.1509 24.304V18.856C65.1509 18.6 65.2469 18.384 65.4389 18.208C65.6469 18.016 65.9109 17.92 66.2309 17.92C66.5509 17.92 66.7989 18.016 66.9749 18.208C67.1669 18.384 67.2629 18.608 67.2629 18.88V24.28C67.2629 24.552 67.1589 24.784 66.9509 24.976C66.7589 25.152 66.5189 25.24 66.2309 25.24ZM66.2309 16.72C65.8949 16.72 65.6069 16.616 65.3669 16.408C65.1269 16.184 65.0069 15.904 65.0069 15.568C65.0069 15.264 65.1269 15 65.3669 14.776C65.6069 14.552 65.8949 14.44 66.2309 14.44C66.5509 14.44 66.8229 14.552 67.0469 14.776C67.2869 15 67.4069 15.264 67.4069 15.568C67.4069 15.904 67.2869 16.184 67.0469 16.408C66.8229 16.616 66.5509 16.72 66.2309 16.72ZM70.837 25.24C70.533 25.24 70.285 25.152 70.093 24.976C69.901 24.784 69.805 24.536 69.805 24.232V20.2C69.805 20.04 69.725 19.96 69.565 19.96H69.229C68.941 19.96 68.725 19.872 68.581 19.696C68.437 19.52 68.365 19.296 68.365 19.024C68.365 18.736 68.437 18.504 68.581 18.328C68.725 18.136 68.941 18.04 69.229 18.04H69.565C69.725 18.04 69.805 17.96 69.805 17.8V17.296C69.805 16.416 70.037 15.744 70.501 15.28C70.981 14.8 71.605 14.56 72.373 14.56C72.549 14.56 72.741 14.576 72.949 14.608C73.173 14.624 73.349 14.656 73.477 14.704C73.701 14.784 73.861 14.912 73.957 15.088C74.069 15.264 74.125 15.448 74.125 15.64C74.125 15.896 74.045 16.136 73.885 16.36C73.725 16.568 73.501 16.672 73.213 16.672C73.085 16.672 72.965 16.656 72.853 16.624C72.741 16.592 72.621 16.576 72.493 16.576C72.109 16.576 71.917 16.848 71.917 17.392V17.8C71.917 17.96 71.997 18.04 72.157 18.04H73.045C73.317 18.04 73.541 18.136 73.717 18.328C73.909 18.52 74.005 18.752 74.005 19.024C74.005 19.296 73.909 19.52 73.717 19.696C73.541 19.872 73.309 19.96 73.021 19.96H72.157C71.997 19.96 71.917 20.04 71.917 20.2V24.232C71.917 24.52 71.813 24.76 71.605 24.952C71.413 25.144 71.157 25.24 70.837 25.24ZM79.933 18.832C79.933 18.528 80.029 18.28 80.221 18.088C80.429 17.896 80.685 17.8 80.989 17.8C81.293 17.8 81.541 17.904 81.733 18.112C81.941 18.304 82.045 18.544 82.045 18.832V22.216C82.045 22.872 81.877 23.432 81.541 23.896C81.205 24.344 80.773 24.68 80.245 24.904C79.717 25.128 79.157 25.24 78.565 25.24C77.989 25.24 77.437 25.128 76.909 24.904C76.381 24.68 75.941 24.344 75.589 23.896C75.253 23.432 75.085 22.872 75.085 22.216V18.832C75.085 18.528 75.181 18.28 75.373 18.088C75.581 17.896 75.837 17.8 76.141 17.8C76.445 17.8 76.693 17.904 76.885 18.112C77.093 18.304 77.197 18.544 77.197 18.832V22.12C77.197 22.456 77.325 22.736 77.581 22.96C77.837 23.184 78.165 23.296 78.565 23.296C78.965 23.296 79.293 23.184 79.549 22.96C79.805 22.736 79.933 22.456 79.933 22.12V18.832ZM92.0181 25.24C91.2821 25.24 90.5941 25.12 89.9541 24.88C89.3141 24.624 88.8101 24.288 88.4421 23.872C88.2661 23.68 88.1781 23.456 88.1781 23.2C88.1781 22.928 88.2821 22.688 88.4901 22.48C88.6981 22.272 88.9461 22.168 89.2341 22.168C89.5061 22.168 89.7381 22.264 89.9301 22.456C90.2021 22.712 90.5461 22.912 90.9621 23.056C91.3781 23.2 91.7861 23.272 92.1861 23.272C92.6021 23.272 92.9621 23.184 93.2661 23.008C93.5701 22.816 93.7221 22.52 93.7221 22.12C93.7221 21.784 93.5781 21.528 93.2901 21.352C93.0181 21.16 92.5541 21.008 91.8981 20.896C90.7301 20.704 89.8501 20.384 89.2581 19.936C88.6661 19.472 88.3701 18.824 88.3701 17.992C88.3701 17.096 88.7141 16.384 89.4021 15.856C90.0901 15.312 90.9941 15.04 92.1141 15.04C93.2661 15.04 94.1861 15.336 94.8741 15.928C95.1461 16.152 95.2821 16.416 95.2821 16.72C95.2821 16.976 95.1781 17.2 94.9701 17.392C94.7781 17.568 94.5461 17.656 94.2741 17.656C94.0661 17.656 93.8741 17.6 93.6981 17.488C93.0901 17.104 92.4501 16.912 91.7781 16.912C91.3781 16.912 91.0421 16.992 90.7701 17.152C90.4981 17.312 90.3621 17.552 90.3621 17.872C90.3621 18.208 90.5701 18.472 90.9861 18.664C91.4181 18.856 92.0421 19.032 92.8581 19.192C93.3061 19.272 93.7461 19.416 94.1781 19.624C94.6261 19.816 94.9941 20.112 95.2821 20.512C95.5861 20.912 95.7381 21.456 95.7381 22.144C95.7381 23.056 95.3861 23.8 94.6821 24.376C93.9941 24.952 93.1061 25.24 92.0181 25.24ZM100.307 25.24C99.6186 25.24 99.0506 25.04 98.6026 24.64C98.1546 24.24 97.9306 23.624 97.9306 22.792V20.2C97.9306 20.04 97.8506 19.96 97.6906 19.96H97.3306C97.0426 19.96 96.8266 19.872 96.6826 19.696C96.5386 19.52 96.4666 19.296 96.4666 19.024C96.4666 18.736 96.5386 18.504 96.6826 18.328C96.8266 18.136 97.0426 18.04 97.3306 18.04H97.6906C97.8506 18.04 97.9306 17.96 97.9306 17.8V16.024C97.9306 15.752 98.0266 15.52 98.2186 15.328C98.4106 15.136 98.6586 15.04 98.9626 15.04C99.2666 15.04 99.5146 15.136 99.7066 15.328C99.9146 15.504 100.019 15.736 100.019 16.024V17.8C100.019 17.96 100.099 18.04 100.259 18.04H101.147C101.419 18.04 101.643 18.136 101.819 18.328C102.011 18.52 102.107 18.752 102.107 19.024C102.107 19.296 102.011 19.52 101.819 19.696C101.643 19.872 101.411 19.96 101.123 19.96H100.259C100.099 19.96 100.019 20.04 100.019 20.2V22.456C100.019 22.744 100.067 22.944 100.163 23.056C100.275 23.168 100.411 23.224 100.571 23.224C100.635 23.224 100.763 23.208 100.955 23.176C101.147 23.128 101.267 23.104 101.315 23.104C101.571 23.104 101.787 23.2 101.963 23.392C102.139 23.584 102.227 23.816 102.227 24.088C102.227 24.296 102.163 24.488 102.035 24.664C101.923 24.84 101.739 24.968 101.483 25.048C101.275 25.112 101.075 25.16 100.883 25.192C100.691 25.224 100.499 25.24 100.307 25.24ZM106.736 25.24C106.048 25.24 105.416 25.08 104.84 24.76C104.264 24.44 103.8 24 103.448 23.44C103.112 22.864 102.944 22.216 102.944 21.496C102.944 20.76 103.112 20.12 103.448 19.576C103.8 19.016 104.264 18.584 104.84 18.28C105.416 17.96 106.048 17.8 106.736 17.8C107.44 17.8 108.072 17.96 108.632 18.28C109.208 18.584 109.664 19.016 110 19.576C110.336 20.12 110.504 20.76 110.504 21.496C110.504 22.216 110.336 22.864 110 23.44C109.664 24 109.208 24.44 108.632 24.76C108.072 25.08 107.44 25.24 106.736 25.24ZM106.736 23.296C107.232 23.296 107.632 23.128 107.936 22.792C108.256 22.44 108.416 22.008 108.416 21.496C108.416 20.968 108.256 20.544 107.936 20.224C107.632 19.904 107.232 19.744 106.736 19.744C106.256 19.744 105.848 19.904 105.512 20.224C105.192 20.544 105.032 20.968 105.032 21.496C105.032 22.008 105.192 22.44 105.512 22.792C105.848 23.128 106.256 23.296 106.736 23.296ZM113.035 25.168C112.731 25.168 112.475 25.08 112.267 24.904C112.059 24.728 111.955 24.504 111.955 24.232V18.856C111.955 18.6 112.051 18.384 112.243 18.208C112.451 18.016 112.715 17.92 113.035 17.92C113.323 17.92 113.555 18.008 113.731 18.184C113.923 18.344 114.035 18.544 114.067 18.784C114.243 18.512 114.483 18.28 114.787 18.088C115.091 17.896 115.411 17.8 115.747 17.8C115.955 17.8 116.155 17.824 116.347 17.872C116.571 17.936 116.755 18.064 116.899 18.256C117.043 18.432 117.115 18.64 117.115 18.88C117.115 19.216 117.003 19.496 116.779 19.72C116.571 19.928 116.323 20 116.035 19.936C115.827 19.888 115.619 19.864 115.411 19.864C115.043 19.864 114.739 19.992 114.499 20.248C114.259 20.504 114.115 21.024 114.067 21.808V24.208C114.067 24.48 113.963 24.712 113.755 24.904C113.563 25.08 113.323 25.168 113.035 25.168ZM121.339 25.24C120.251 25.24 119.331 24.92 118.579 24.28C117.843 23.624 117.475 22.728 117.475 21.592C117.475 20.408 117.835 19.48 118.555 18.808C119.291 18.136 120.211 17.8 121.315 17.8C122.099 17.8 122.747 17.944 123.259 18.232C123.771 18.52 124.155 18.888 124.411 19.336C124.667 19.784 124.795 20.256 124.795 20.752C124.795 21.584 124.427 22 123.691 22H119.707C119.579 22 119.515 22.08 119.515 22.24C119.515 22.608 119.715 22.904 120.115 23.128C120.531 23.336 120.995 23.44 121.507 23.44C121.827 23.44 122.147 23.4 122.467 23.32C122.787 23.224 123.067 23.088 123.307 22.912C123.467 22.8 123.635 22.744 123.811 22.744C124.051 22.744 124.251 22.832 124.411 23.008C124.587 23.184 124.675 23.392 124.675 23.632C124.675 23.92 124.523 24.192 124.219 24.448C123.931 24.688 123.507 24.88 122.947 25.024C122.403 25.168 121.867 25.24 121.339 25.24ZM122.587 20.608C122.619 20.608 122.659 20.6 122.707 20.584C122.771 20.568 122.803 20.512 122.803 20.416C122.803 20.176 122.651 19.96 122.347 19.768C122.059 19.56 121.683 19.456 121.219 19.456C120.723 19.456 120.315 19.568 119.995 19.792C119.691 20 119.539 20.216 119.539 20.44C119.539 20.552 119.603 20.608 119.731 20.608H122.587Z" fill="black"/>
</svg>
