<svg width="190" height="161" viewBox="0 0 190 161" fill="none" xmlns="http://www.w3.org/2000/svg">
<g clip-path="url(#clip0_19_98)">
<path d="M67.5065 35.0525C68.2748 21.0222 77.6035 12.408 82.1718 9.85472C83.7017 8.55577 87.3695 5.94271 89.8019 5.88204C92.8423 5.80619 91.1414 3.54632 108.26 7.47722C125.379 11.4081 128.898 43.717 129.044 46.2623C129.189 48.8077 128.281 55.2439 127.512 60.6899C126.985 64.4304 123.486 67.2753 121.874 68.4374C121.722 68.6419 121.536 68.7912 121.304 68.9028C120.795 69.1473 121.138 68.9673 121.874 68.4374C122.778 67.213 122.427 64.0093 123.26 55.0402C122.492 60.4863 118.333 68.4836 115.864 71.6698C115.252 72.425 113.28 74.2338 110.284 75.4268C114.093 69.905 117.249 54.6968 115.56 59.508C113.871 64.3192 99.8112 70.919 99.2462 71.3443C98.6813 71.7695 94.4351 69.6553 82.3313 62.3926C83.689 71.6358 89.905 76.8039 91.3974 77.7166C90.7602 77.4967 89.9096 77.232 88.8612 76.9479C77.1886 73.7857 73.6232 56.114 74.5555 63.8199C75.4877 71.5258 87.0266 79.2138 77.2585 73.2906C67.4904 67.3674 66.5462 52.5904 67.5065 35.0525Z" fill="#313030"/>
<path d="M117.322 39.005C120.113 58.5871 106.196 66.5538 98.9875 68.7344C83.2563 65.7063 78.6395 50.714 78.2975 43.5963L82.1765 37.5794C82.9686 37.6912 85.5543 27.957 86.7482 23.0759C86.7774 26.4464 88.0965 34.2743 93.1384 38.6215C98.1804 42.9688 102.221 43.4381 103.611 43.1293C103.467 41.7625 103.194 38.9298 103.25 38.5337C103.199 38.259 103.006 37.8222 102.702 37.1339C101.888 35.2921 100.277 31.6493 98.4731 24.4899C98.3769 24.2091 98.3098 23.9426 98.2751 23.6929C98.3413 23.9632 98.4074 24.229 98.4731 24.4899C98.5506 24.7158 98.6469 24.951 98.7604 25.1944C100.543 29.0152 106.57 34.8364 110.391 38.0267L110.74 35.5512C111.449 36.4929 113.757 38.5019 117.322 39.005Z" fill="white"/>
<path d="M136.989 28.5979L130.198 26.6295C129.858 26.1775 129.916 27.4314 129.988 28.1148L131.829 29.3845C132.301 29.6194 134.008 30.399 137.065 31.6384C138.482 33.0502 137.092 33.8304 136.221 34.044L130.914 32.2852L133.046 38.6455C133.26 39.5173 133.9 41.8968 134.753 44.4409C134.418 46.8174 133.154 46.235 132.563 45.6467L128.014 31.3708C127.587 29.6273 126.675 25.8293 126.447 24.5852C126.161 23.0301 135.003 24.7829 137.339 26.1225C139.207 27.1941 137.884 28.2193 136.989 28.5979Z" fill="#313030"/>
<path d="M136.989 28.5979L130.198 26.6295C129.858 26.1775 129.916 27.4314 129.988 28.1148L131.829 29.3845C132.301 29.6194 134.008 30.399 137.065 31.6384C138.482 33.0502 137.092 33.8304 136.221 34.044L130.914 32.2852L133.046 38.6455C133.26 39.5173 133.9 41.8968 134.753 44.4409C134.418 46.8174 133.154 46.235 132.563 45.6467L128.014 31.3708C127.587 29.6273 126.675 25.8293 126.447 24.5852C126.161 23.0301 135.003 24.7829 137.339 26.1225C139.207 27.1941 137.884 28.2193 136.989 28.5979Z" fill="#313030"/>
<path d="M76.4073 28.3656L77.9732 21.3596C79.4645 20.6065 80.8578 21.3652 81.3681 21.8387L80.368 28.9246C78.224 31.031 76.8342 29.4296 76.4073 28.3656Z" fill="white"/>
<path d="M76.4073 28.3656L77.9732 21.3596C79.4645 20.6065 80.8578 21.3652 81.3681 21.8387L80.368 28.9246C78.224 31.031 76.8342 29.4296 76.4073 28.3656Z" fill="white"/>
<path d="M74.2554 25.7242C73.1195 23.0391 71.4246 24.3148 70.7898 25.2351L70.3705 28.2056C71.3351 29.9576 73.0829 29.2617 73.8362 28.6948L73.906 28.1997L73.9759 27.7046L74.2554 25.7242Z" fill="white"/>
<path d="M74.2554 25.7242C73.1195 23.0391 71.4246 24.3148 70.7898 25.2351L70.3705 28.2056C71.3351 29.9576 73.0829 29.2617 73.8362 28.6948L73.906 28.1997L73.9759 27.7046L74.2554 25.7242Z" fill="white"/>
<path d="M112.429 29.5493L108.906 22.9077L105.383 16.2662C106.031 14.648 107.516 14.7863 108.177 15.0577C110.037 17.9916 114.168 24.6655 115.812 27.8896C115.868 30.4621 113.58 30.068 112.429 29.5493Z" fill="white"/>
<path d="M112.429 29.5493L108.906 22.9077L105.383 16.2662C106.031 14.648 107.516 14.7863 108.177 15.0577C110.037 17.9916 114.168 24.6655 115.812 27.8896C115.868 30.4621 113.58 30.068 112.429 29.5493Z" fill="white"/>
<path d="M106.725 35.3816C106.617 35.0863 106.354 35.0249 106.176 34.9695C105.729 34.8302 105.271 34.7381 104.797 34.8146C104.081 34.9301 103.403 34.9747 102.679 35.4233" stroke="#313030" stroke-width="0.5" stroke-linecap="round"/>
<path d="M88.0212 36.4253C87.7524 36.3267 87.4473 36.3071 87.165 36.272C86.5447 36.1947 85.9157 36.2268 85.2924 36.2144C84.83 36.2052 84.4081 36.2755 83.9643 36.4033C83.7056 36.4778 83.5147 36.5857 83.3044 36.744" stroke="#313030" stroke-width="0.5" stroke-linecap="round"/>
<path d="M106.16 50.0536C105.851 50.3162 105.564 50.9855 105.419 51.342C105.342 51.5328 105.144 51.6382 105.032 51.8104C104.845 52.098 104.709 52.3952 104.468 52.6525C104.097 53.0487 103.78 53.4967 103.432 53.9044C103.283 54.0789 102.99 54.6849 103.022 54.4577" stroke="#313030" stroke-linecap="round"/>
<path d="M109.088 49.4567C108.951 50.4274 108.169 51.4415 107.534 52.1736C107.216 52.5403 106.888 52.9448 106.627 53.3557C106.544 53.4866 106.113 54.0271 106.12 53.978" stroke="#313030" stroke-linecap="round"/>
<path d="M111.876 49.8501C112.15 49.9612 109.553 52.8787 109.258 53.2091" stroke="#313030" stroke-linecap="round"/>
<path d="M90.5434 51.889C90.4305 52.3505 89.8891 53.062 89.5401 53.3838C89.2236 53.6756 88.7516 54.0806 88.4701 54.4134C88.0144 54.952 87.5668 55.5122 87.1183 56.0662" stroke="#313030" stroke-linecap="round"/>
<path d="M86.4655 52.3234C86.322 52.9551 85.7771 53.5179 85.3878 54.0149C85.0897 54.3956 84.867 54.8341 84.5675 55.2041C84.3128 55.5187 83.9536 56.2564 83.5615 56.3878" stroke="#313030" stroke-linecap="round"/>
<path d="M83.2637 52.8813C82.8234 52.8744 81.8583 54.5082 81.5897 54.8356C81.3282 55.1544 80.9688 55.9144 80.5802 56.0447" stroke="#313030" stroke-linecap="round"/>
<path d="M65.575 30.4423C65.7986 28.858 64.7711 28.9823 64.2295 29.2424L59.3544 31.5841L54.4793 33.9258C53.8596 35.4542 55.355 36.0692 56.1802 36.1857L58.3702 34.9799L61.6202 33.4188C62.9202 32.7943 63.1055 33.6284 63.0356 34.1235L60.2108 36.2496L56.256 39.2261C55.5804 41.1506 56.7784 41.488 57.4618 41.4161L62.5465 37.5892L61.3586 46.0057L60.5201 51.9469C61.1446 53.2469 62.4306 52.7215 62.9956 52.2962C63.2072 51.9895 63.7562 50.4848 64.2593 46.9201C64.8882 42.4642 65.2955 32.4226 65.575 30.4423Z" fill="#313030"/>
<path d="M65.575 30.4423C65.7986 28.858 64.7711 28.9823 64.2295 29.2424L59.3544 31.5841L54.4793 33.9258C53.8596 35.4542 55.355 36.0692 56.1802 36.1857L58.3702 34.9799L61.6202 33.4188C62.9202 32.7943 63.1055 33.6284 63.0356 34.1235L60.2108 36.2496L56.256 39.2261C55.5804 41.1506 56.7784 41.488 57.4618 41.4161L62.5465 37.5892L61.3586 46.0057L60.5201 51.9469C61.1446 53.2469 62.4306 52.7215 62.9956 52.2962C63.2072 51.9895 63.7562 50.4848 64.2593 46.9201C64.8882 42.4642 65.2955 32.4226 65.575 30.4423Z" fill="#313030"/>
<path d="M74.3016 43.2878L79.8933 46.6017L80.3884 46.6716L80.6679 44.6912L81.9376 42.8506L82.9977 42.4953L83.9879 42.635C83.2133 44.5455 82.293 43.9107 81.728 44.3359C81.276 44.6761 81.5902 46.5046 81.8038 47.3763C82.064 47.918 82.7824 49.0293 83.5746 49.1411L87.0402 49.6302C87.5353 49.7001 88.7837 49.203 89.1604 48.9195C89.372 48.6128 89.8371 47.7022 90.0048 46.514C90.1725 45.3257 89.4572 43.2386 89.0786 42.3436L91.9792 43.2579L91.6239 42.1979C90.8453 41.7513 89.3021 40.7593 89.358 40.3632C89.4139 39.9671 90.1346 39.6312 90.488 39.5128L89.6375 38.3828C88.6707 38.0781 86.9209 37.5955 87.6572 38.1033C88.3934 38.6112 88.861 39.1148 89.0027 39.3031C89.4512 39.7031 89.6691 40.3061 86.9525 39.5187C84.2358 38.7314 80.8736 40.8489 79.532 42.0062C78.2351 41.6548 75.9242 41.093 77.0566 41.6568C78.1889 42.2206 78.7554 42.7381 78.8972 42.9265L78.2623 43.8468L74.3016 43.2878Z" fill="#313030"/>
<path d="M109.511 40.6827C111.422 41.4573 112.604 43.8124 112.913 45.2025L113.192 43.2221L116.157 40.1058L113.047 40.6768L110.286 38.7722C108.847 38.2325 105.518 37.4933 103.71 38.854C101.902 40.2147 101.97 41.6383 102.23 42.18C103.007 41.448 104.617 40.295 104.846 41.5391C105.131 43.0943 104.141 42.9545 103.151 42.8148C102.306 45.2204 103.722 45.9251 103.652 46.4202C103.582 46.9153 105.988 47.7598 107.473 47.9694C108.463 48.1091 109.17 47.8722 110.088 47.3286C110.511 46.715 111.372 45.3889 111.428 44.9929C111.484 44.5968 111.307 43.461 111.212 42.9426L109.511 40.6827Z" fill="#313030"/>
<path d="M107.988 44.3149L105.303 45.4508C105.233 45.9459 107.499 47.7805 108.769 45.9399C109.785 44.4674 108.672 44.243 107.988 44.3149Z" fill="white"/>
<path d="M116.892 17.296C114.571 16.5645 114.088 18.0785 114.137 18.927C114.657 20.0103 116.194 22.954 118.179 26.0619C120.728 28.0375 121.362 26.1744 121.36 24.9959L118.948 20.6159L116.892 17.296Z" fill="white"/>
<path d="M116.892 17.296C114.571 16.5645 114.088 18.0785 114.137 18.927C114.657 20.0103 116.194 22.954 118.179 26.0619C120.728 28.0375 121.362 26.1744 121.36 24.9959L118.948 20.6159L116.892 17.296Z" fill="white"/>
<path d="M86.4345 46.7645L84.9492 46.5549C84.4972 46.8951 84.6211 47.6868 84.7395 48.0402C85.6832 48.51 87.7253 49.0675 88.345 47.5391C88.9646 46.0107 87.7527 45.7723 87.0693 45.8442L86.4345 46.7645Z" fill="white"/>
<path d="M19.14 125.32C17.292 125.32 15.62 124.748 14.124 123.604C12.628 122.372 11.704 120.788 11.352 118.852L3.3 75.952C3.124 74.192 3.608 72.74 4.752 71.596C5.984 70.452 7.48 69.88 9.24 69.88C10.736 69.88 12.012 70.32 13.068 71.2C14.124 72.08 14.784 73.268 15.048 74.764L19.8 103.672C19.976 104.728 20.372 105.256 20.988 105.256C21.516 105.256 21.912 104.772 22.176 103.804L28.512 80.44C28.952 78.768 29.788 77.536 31.02 76.744C32.252 75.864 33.572 75.424 34.98 75.424C36.388 75.424 37.708 75.864 38.94 76.744C40.172 77.536 41.008 78.768 41.448 80.44L47.784 103.804C48.048 104.772 48.444 105.256 48.972 105.256C49.676 105.256 50.072 104.728 50.16 103.672L54.912 74.764C55.176 73.268 55.836 72.08 56.892 71.2C58.036 70.32 59.312 69.88 60.72 69.88C62.48 69.88 63.932 70.452 65.076 71.596C66.308 72.74 66.836 74.192 66.66 75.952L58.476 118.852C58.124 120.788 57.2 122.372 55.704 123.604C54.208 124.748 52.536 125.32 50.688 125.32C49.016 125.32 47.432 124.792 45.936 123.736C44.528 122.592 43.472 121.096 42.768 119.248L36.168 96.016C35.904 95.048 35.508 94.564 34.98 94.564C34.364 94.564 33.924 95.048 33.66 96.016L27.06 119.248C26.532 121.096 25.52 122.592 24.024 123.736C22.528 124.792 20.9 125.32 19.14 125.32ZM87.3361 125.02C82.7801 125.02 79.0741 123.592 76.2181 120.736C73.4301 117.812 72.0361 113.936 72.0361 109.108C72.0361 104.28 73.3961 100.472 76.1161 97.684C78.9041 94.828 82.5421 93.4 87.0301 93.4C90.2261 93.4 93.0141 94.522 95.3941 96.766C95.6661 95.95 96.1761 95.27 96.9241 94.726C97.6721 94.182 98.5561 93.91 99.5761 93.91C100.936 93.91 102.024 94.318 102.84 95.134C103.724 95.882 104.166 96.8 104.166 97.888V121.042C104.166 122.198 103.724 123.15 102.84 123.898C102.024 124.646 100.936 125.02 99.5761 125.02C97.3321 125.02 95.9381 124.034 95.3941 122.062C93.2181 124.034 90.5321 125.02 87.3361 125.02ZM88.0501 116.758C90.2261 116.758 91.9601 116.044 93.2521 114.616C94.5441 113.12 95.1901 111.284 95.1901 109.108C95.1901 106.864 94.5441 105.062 93.2521 103.702C91.9601 102.342 90.2261 101.662 88.0501 101.662C85.9421 101.662 84.2081 102.342 82.8481 103.702C81.5561 105.062 80.9101 106.864 80.9101 109.108C80.9101 111.284 81.5561 113.12 82.8481 114.616C84.2081 116.044 85.9421 116.758 88.0501 116.758ZM116.52 125.02C115.228 125.02 114.14 124.646 113.256 123.898C112.372 123.15 111.93 122.198 111.93 121.042V97.888C111.93 96.8 112.338 95.882 113.154 95.134C114.038 94.318 115.16 93.91 116.52 93.91C117.88 93.91 118.934 94.318 119.682 95.134C120.498 95.882 120.906 96.834 120.906 97.99V120.94C120.906 122.096 120.464 123.082 119.58 123.898C118.764 124.646 117.744 125.02 116.52 125.02ZM116.52 88.81C115.092 88.81 113.868 88.368 112.848 87.484C111.828 86.532 111.318 85.342 111.318 83.914C111.318 82.622 111.828 81.5 112.848 80.548C113.868 79.596 115.092 79.12 116.52 79.12C117.88 79.12 119.036 79.596 119.988 80.548C121.008 81.5 121.518 82.622 121.518 83.914C121.518 85.342 121.008 86.532 119.988 87.484C119.036 88.368 117.88 88.81 116.52 88.81ZM136.096 125.02C134.804 125.02 133.75 124.646 132.934 123.898C132.118 123.082 131.71 122.028 131.71 120.736V103.6C131.71 102.92 131.37 102.58 130.69 102.58H129.262C128.038 102.58 127.12 102.206 126.508 101.458C125.896 100.71 125.59 99.758 125.59 98.602C125.59 97.378 125.896 96.392 126.508 95.644C127.12 94.828 128.038 94.42 129.262 94.42H130.69C131.37 94.42 131.71 94.08 131.71 93.4V91.258C131.71 87.518 132.696 84.662 134.668 82.69C136.708 80.65 139.36 79.63 142.624 79.63C143.372 79.63 144.188 79.698 145.072 79.834C146.024 79.902 146.772 80.038 147.316 80.242C148.268 80.582 148.948 81.126 149.356 81.874C149.832 82.622 150.07 83.404 150.07 84.22C150.07 85.308 149.73 86.328 149.05 87.28C148.37 88.164 147.418 88.606 146.194 88.606C145.65 88.606 145.14 88.538 144.664 88.402C144.188 88.266 143.678 88.198 143.134 88.198C141.502 88.198 140.686 89.354 140.686 91.666V93.4C140.686 94.08 141.026 94.42 141.706 94.42H145.48C146.636 94.42 147.588 94.828 148.336 95.644C149.152 96.46 149.56 97.446 149.56 98.602C149.56 99.758 149.152 100.71 148.336 101.458C147.588 102.206 146.602 102.58 145.378 102.58H141.706C141.026 102.58 140.686 102.92 140.686 103.6V120.736C140.686 121.96 140.244 122.98 139.36 123.796C138.544 124.612 137.456 125.02 136.096 125.02ZM174.754 97.786C174.754 96.494 175.162 95.44 175.978 94.624C176.862 93.808 177.95 93.4 179.242 93.4C180.534 93.4 181.588 93.842 182.404 94.726C183.288 95.542 183.73 96.562 183.73 97.786V112.168C183.73 114.956 183.016 117.336 181.588 119.308C180.16 121.212 178.324 122.64 176.08 123.592C173.836 124.544 171.456 125.02 168.94 125.02C166.492 125.02 164.146 124.544 161.902 123.592C159.658 122.64 157.788 121.212 156.292 119.308C154.864 117.336 154.15 114.956 154.15 112.168V97.786C154.15 96.494 154.558 95.44 155.374 94.624C156.258 93.808 157.346 93.4 158.638 93.4C159.93 93.4 160.984 93.842 161.8 94.726C162.684 95.542 163.126 96.562 163.126 97.786V111.76C163.126 113.188 163.67 114.378 164.758 115.33C165.846 116.282 167.24 116.758 168.94 116.758C170.64 116.758 172.034 116.282 173.122 115.33C174.21 114.378 174.754 113.188 174.754 111.76V97.786Z" fill="#313030"/>
<path d="M18.442 145.57C18.8713 145.57 19.224 145.708 19.5 145.984C19.8067 146.229 19.96 146.551 19.96 146.95C19.96 147.349 19.8067 147.686 19.5 147.962C19.224 148.207 18.8713 148.33 18.442 148.33H11.312C10.8827 148.33 10.53 148.207 10.254 147.962C9.978 147.686 9.84 147.349 9.84 146.95C9.84 146.521 9.978 146.183 10.254 145.938C10.53 145.693 10.8827 145.57 11.312 145.57H18.442ZM40.651 155.46C39.2403 155.46 37.9217 155.23 36.695 154.77C35.4683 154.279 34.5023 153.635 33.797 152.838C33.4597 152.47 33.291 152.041 33.291 151.55C33.291 151.029 33.4903 150.569 33.889 150.17C34.2877 149.771 34.763 149.572 35.315 149.572C35.8363 149.572 36.281 149.756 36.649 150.124C37.1703 150.615 37.8297 150.998 38.627 151.274C39.4243 151.55 40.2063 151.688 40.973 151.688C41.7703 151.688 42.4603 151.519 43.043 151.182C43.6257 150.814 43.917 150.247 43.917 149.48C43.917 148.836 43.641 148.345 43.089 148.008C42.5677 147.64 41.6783 147.349 40.421 147.134C38.1823 146.766 36.4957 146.153 35.361 145.294C34.2263 144.405 33.659 143.163 33.659 141.568C33.659 139.851 34.3183 138.486 35.637 137.474C36.9557 136.431 38.6883 135.91 40.835 135.91C43.043 135.91 44.8063 136.477 46.125 137.612C46.6463 138.041 46.907 138.547 46.907 139.13C46.907 139.621 46.7077 140.05 46.309 140.418C45.941 140.755 45.4963 140.924 44.975 140.924C44.5763 140.924 44.2083 140.817 43.871 140.602C42.7057 139.866 41.479 139.498 40.191 139.498C39.4243 139.498 38.7803 139.651 38.259 139.958C37.7377 140.265 37.477 140.725 37.477 141.338C37.477 141.982 37.8757 142.488 38.673 142.856C39.501 143.224 40.697 143.561 42.261 143.868C43.1197 144.021 43.963 144.297 44.791 144.696C45.6497 145.064 46.355 145.631 46.907 146.398C47.4897 147.165 47.781 148.207 47.781 149.526C47.781 151.274 47.1063 152.7 45.757 153.804C44.4383 154.908 42.7363 155.46 40.651 155.46ZM67.5772 155.46C66.9945 155.46 66.5039 155.291 66.1052 154.954C65.7065 154.586 65.5072 154.111 65.5072 153.528V141.522C65.5072 140.602 65.0472 140.142 64.1272 140.142H61.8732C61.3212 140.142 60.8612 139.973 60.4932 139.636C60.1559 139.268 59.9872 138.808 59.9872 138.256C59.9872 137.704 60.1559 137.259 60.4932 136.922C60.8612 136.554 61.3212 136.37 61.8732 136.37H73.2352C73.8179 136.37 74.2779 136.554 74.6152 136.922C74.9832 137.259 75.1672 137.704 75.1672 138.256C75.1672 138.808 74.9832 139.268 74.6152 139.636C74.2779 139.973 73.8179 140.142 73.2352 140.142H71.0272C70.1072 140.142 69.6472 140.602 69.6472 141.522V153.528C69.6472 154.111 69.4479 154.586 69.0492 154.954C68.6812 155.291 68.1905 155.46 67.5772 155.46ZM96.504 155.46C94.6947 155.46 93.054 155.031 91.582 154.172C90.1407 153.283 88.9907 152.087 88.132 150.584C87.304 149.081 86.89 147.425 86.89 145.616C86.89 143.745 87.304 142.089 88.132 140.648C88.9907 139.176 90.1407 138.026 91.582 137.198C93.0233 136.339 94.664 135.91 96.504 135.91C98.344 135.91 99.9693 136.339 101.38 137.198C102.821 138.026 103.941 139.176 104.738 140.648C105.566 142.089 105.98 143.745 105.98 145.616C105.98 147.456 105.566 149.127 104.738 150.63C103.91 152.102 102.775 153.283 101.334 154.172C99.9233 155.031 98.3133 155.46 96.504 155.46ZM96.504 151.78C98.068 151.78 99.3407 151.197 100.322 150.032C101.334 148.867 101.84 147.395 101.84 145.616C101.84 143.837 101.334 142.381 100.322 141.246C99.3407 140.111 98.068 139.544 96.504 139.544C94.9093 139.544 93.5907 140.111 92.548 141.246C91.536 142.381 91.03 143.837 91.03 145.616C91.03 147.395 91.536 148.867 92.548 150.032C93.5907 151.197 94.9093 151.78 96.504 151.78ZM121.797 155.46C121.245 155.46 120.769 155.276 120.371 154.908C119.972 154.509 119.773 154.049 119.773 153.528V139.36C119.773 138.471 120.049 137.75 120.601 137.198C121.183 136.646 121.95 136.37 122.901 136.37H127.501C129.371 136.37 130.874 136.922 132.009 138.026C133.174 139.13 133.757 140.51 133.757 142.166C133.757 143.147 133.496 144.067 132.975 144.926C132.453 145.785 131.702 146.475 130.721 146.996C131.15 147.211 131.533 147.502 131.871 147.87C132.239 148.238 132.53 148.683 132.745 149.204L134.263 152.7C134.416 153.068 134.493 153.375 134.493 153.62C134.493 154.172 134.278 154.632 133.849 155C133.419 155.337 132.944 155.506 132.423 155.506C132.085 155.506 131.748 155.414 131.411 155.23C131.104 155.046 130.859 154.755 130.675 154.356L128.927 150.17C128.62 149.434 128.206 148.913 127.685 148.606C127.194 148.269 126.611 148.1 125.937 148.1H124.741C124.127 148.1 123.821 148.407 123.821 149.02V153.528C123.821 154.049 123.621 154.509 123.223 154.908C122.824 155.276 122.349 155.46 121.797 155.46ZM124.511 144.65H127.317C128.083 144.65 128.681 144.435 129.111 144.006C129.571 143.577 129.801 143.025 129.801 142.35C129.801 141.645 129.571 141.093 129.111 140.694C128.681 140.265 128.083 140.05 127.317 140.05H124.511C124.051 140.05 123.821 140.28 123.821 140.74V143.96C123.821 144.42 124.051 144.65 124.511 144.65ZM150.817 155C149.928 155 149.207 154.724 148.655 154.172C148.103 153.62 147.827 152.899 147.827 152.01V139.222C147.827 138.333 148.088 137.643 148.609 137.152C149.131 136.631 149.821 136.37 150.679 136.37H157.625C158.913 136.37 159.557 136.983 159.557 138.21C159.557 138.731 159.373 139.176 159.005 139.544C158.637 139.881 158.177 140.05 157.625 140.05H152.887C152.274 140.05 151.967 140.357 151.967 140.97V142.81C151.967 143.423 152.274 143.73 152.887 143.73H156.935C157.549 143.73 158.024 143.899 158.361 144.236C158.699 144.573 158.867 145.018 158.867 145.57C158.867 146.061 158.668 146.49 158.269 146.858C157.901 147.226 157.457 147.41 156.935 147.41H152.887C152.274 147.41 151.967 147.717 151.967 148.33V150.354C151.967 150.967 152.274 151.274 152.887 151.274H158.085C158.668 151.274 159.128 151.443 159.465 151.78C159.833 152.117 160.017 152.577 160.017 153.16C160.017 153.681 159.833 154.126 159.465 154.494C159.097 154.831 158.637 155 158.085 155H150.817ZM182.188 145.57C182.617 145.57 182.97 145.708 183.246 145.984C183.552 146.229 183.706 146.551 183.706 146.95C183.706 147.349 183.552 147.686 183.246 147.962C182.97 148.207 182.617 148.33 182.188 148.33H175.058C174.628 148.33 174.276 148.207 174 147.962C173.724 147.686 173.586 147.349 173.586 146.95C173.586 146.521 173.724 146.183 174 145.938C174.276 145.693 174.628 145.57 175.058 145.57H182.188Z" fill="#313030"/>
</g>
<defs>
<clipPath id="clip0_19_98">
<rect width="190" height="161" fill="white"/>
</clipPath>
</defs>
</svg>
