<svg width="100" height="100" viewBox="0 0 101 101" fill="none" xmlns="http://www.w3.org/2000/svg">
<path d="M29.6667 83.8335C29.6667 76.9299 38.9941 71.3335 50.5001 71.3335C62.006 71.3335 71.3334 76.9299 71.3334 83.8335" stroke="#171740" stroke-width="2" stroke-linecap="round" stroke-linejoin="round"/>
<path d="M75.5 59.873C82.8579 61.8019 88 66.2071 88 71.3329" stroke="#171740" stroke-width="2" stroke-linecap="round" stroke-linejoin="round"/>
<path d="M25.5 59.873C18.1421 61.8019 13 66.2071 13 71.3329" stroke="#171740" stroke-width="2" stroke-linecap="round" stroke-linejoin="round"/>
<path d="M50.5 58.8335C57.4036 58.8335 63 53.2371 63 46.3335C63 39.4299 57.4036 33.8335 50.5 33.8335C43.5964 33.8335 38 39.4299 38 46.3335C38 53.2371 43.5964 58.8335 50.5 58.8335Z" stroke="#171740" stroke-width="2" stroke-linecap="round" stroke-linejoin="round"/>
<path d="M75.4999 43.1506C78.0572 40.8618 79.6666 37.5356 79.6666 33.8335C79.6666 26.9299 74.0701 21.3335 67.1666 21.3335C63.9651 21.3335 61.0447 22.5371 58.8333 24.5164" stroke="#171740" stroke-width="2" stroke-linecap="round" stroke-linejoin="round"/>
<path d="M25.4999 43.1506C22.9426 40.8618 21.3333 37.5356 21.3333 33.8335C21.3333 26.9299 26.9297 21.3335 33.8333 21.3335C37.0347 21.3335 39.9551 22.5371 42.1666 24.5164" stroke="#171740" stroke-width="2" stroke-linecap="round" stroke-linejoin="round"/>
</svg>
