<svg width="30" height="31" viewBox="0 0 30 31" fill="none" xmlns="http://www.w3.org/2000/svg">
<rect y="0.5" width="30" height="30" rx="15" fill="#F0F0F0"/>
<path d="M11.3136 6.5H8.68199C7.68105 6.5 6.86963 7.3483 6.86963 8.39474C6.86963 17.2894 13.7667 24.5 22.2747 24.5C23.2756 24.5 24.087 23.6517 24.087 22.6053V19.8541C24.087 19.0363 23.6108 18.3008 22.8845 17.9971L20.3634 16.9428C19.711 16.67 18.968 16.7931 18.4282 17.2634L17.7769 17.8307C17.0168 18.493 15.8991 18.44 15.1995 17.7085L13.3658 15.7915C12.6662 15.06 12.6155 13.8916 13.2489 13.0969L13.7916 12.416C14.2415 11.8517 14.3592 11.0749 14.0982 10.3929L13.0898 7.75722C12.7993 6.9979 12.0958 6.5 11.3136 6.5Z" stroke="black" stroke-width="2" stroke-linecap="round" stroke-linejoin="round"/>
</svg>
